<svg width="24" height="18" viewBox="0 0 24 18" fill="none" xmlns="http://www.w3.org/2000/svg">
<path d="M20.8184 17.9286C20.3682 17.9378 19.926 17.809 19.5512 17.5595C19.2723 17.3772 18.9462 17.2802 18.613 17.2802C18.2797 17.2802 17.9537 17.3772 17.6747 17.5595C17.2961 17.8006 16.8566 17.9286 16.4077 17.9286C15.9589 17.9286 15.5194 17.8006 15.1408 17.5595C14.8618 17.377 14.5357 17.2799 14.2023 17.2799C13.869 17.2799 13.5429 17.377 13.2639 17.5595C12.8853 17.8006 12.4458 17.9286 11.9969 17.9286C11.5481 17.9286 11.1086 17.8006 10.7299 17.5595C10.4512 17.3772 10.1253 17.28 9.79216 17.28C9.45904 17.28 9.13315 17.3772 8.85438 17.5595C8.5111 17.7876 8.1105 17.9144 7.69848 17.9253L7.67578 17.2767C7.98012 17.2695 8.27566 17.1732 8.52584 16.9997C8.90435 16.7587 9.34376 16.6307 9.79248 16.6307C10.2412 16.6307 10.6806 16.7587 11.0591 16.9997C11.3381 17.1821 11.6641 17.2792 11.9974 17.2792C12.3307 17.2792 12.6567 17.1821 12.9357 16.9997C13.3143 16.7585 13.754 16.6304 14.203 16.6304C14.6519 16.6304 15.0916 16.7585 15.4703 16.9997C15.7492 17.1821 16.0753 17.2792 16.4085 17.2792C16.7418 17.2792 17.0679 17.1821 17.3468 16.9997C17.7255 16.7588 18.165 16.6308 18.6138 16.6308C19.0626 16.6308 19.5021 16.7588 19.8808 16.9997C20.1604 17.1825 20.4872 17.2799 20.8213 17.2799C21.1554 17.2799 21.4822 17.1825 21.7618 16.9997C22.1362 16.751 22.5776 16.6224 23.027 16.6313V17.2799C22.6924 17.2708 22.3636 17.3686 22.0884 17.5592C21.7127 17.809 21.2695 17.9379 20.8184 17.9286Z" fill="white"/>
<path d="M3.17855 17.9285C2.72849 17.9378 2.28638 17.809 1.91174 17.5594C1.63661 17.3686 1.30779 17.2707 0.973145 17.2798V16.6312C1.42331 16.6218 1.86554 16.7506 2.24028 17.0002C2.51525 17.191 2.84399 17.289 3.17855 17.2798C3.51326 17.289 3.84214 17.1909 4.11714 16.9999C4.49108 16.7504 4.93258 16.6217 5.38201 16.6312C5.82054 16.6213 6.25182 16.7442 6.6193 16.9837L6.29206 17.5435C6.02363 17.3628 5.70543 17.2706 5.38201 17.2798C5.04868 17.2708 4.7212 17.3685 4.44731 17.5587C4.07224 17.809 3.62935 17.9381 3.17855 17.9285Z" fill="white"/>
<path d="M20.8195 15.6579C20.3691 15.6671 19.9266 15.5383 19.5514 15.2888C19.2722 15.1064 18.9459 15.0092 18.6123 15.0092C18.2788 15.0092 17.9525 15.1064 17.6733 15.2888C17.2947 15.5298 16.8552 15.6578 16.4064 15.6578C15.9577 15.6578 15.5182 15.5298 15.1396 15.2888C14.8608 15.1065 14.5349 15.0094 14.2017 15.0094C13.8685 15.0094 13.5426 15.1065 13.2637 15.2888C12.8852 15.5299 12.4457 15.6579 11.9969 15.6579C11.5481 15.6579 11.1087 15.5299 10.7301 15.2888C10.4513 15.1065 10.1253 15.0094 9.79217 15.0094C9.45901 15.0094 9.13306 15.1065 8.85423 15.2888C8.47961 15.5384 8.03748 15.6672 7.58742 15.6579C7.13735 15.6672 6.69523 15.5384 6.3206 15.2888C6.04573 15.0981 5.71711 15.0001 5.38266 15.0093C5.04832 15.0002 4.71981 15.0981 4.44504 15.2888C4.07101 15.5381 3.62959 15.6669 3.18017 15.6579C2.73 15.6672 2.28778 15.5384 1.91304 15.2888C1.63761 15.0977 1.30825 14.9997 0.973145 15.0093V14.3606C1.42321 14.3513 1.86532 14.4801 2.23996 14.7297C2.51508 14.9204 2.8439 15.0184 3.17855 15.0093C3.51289 15.0183 3.8414 14.9204 4.11617 14.7297C4.4902 14.4804 4.93161 14.3516 5.38104 14.3606C5.83144 14.351 6.27393 14.4799 6.64882 14.7297C6.9238 14.9205 7.25253 15.0184 7.58709 15.0093C7.92165 15.0184 8.25039 14.9205 8.52536 14.7297C8.9039 14.4886 9.34338 14.3605 9.79217 14.3605C10.241 14.3605 10.6804 14.4886 11.059 14.7297C11.3379 14.9121 11.6639 15.0092 11.9971 15.0092C12.3303 15.0092 12.6563 14.9121 12.9352 14.7297C13.3137 14.4886 13.7532 14.3605 14.202 14.3605C14.6508 14.3605 15.0903 14.4886 15.4688 14.7297C15.7477 14.9121 16.0737 15.0092 16.4069 15.0092C16.7402 15.0092 17.0662 14.9121 17.345 14.7297C17.724 14.4887 18.1637 14.3607 18.6128 14.3607C19.0619 14.3607 19.5017 14.4887 19.8806 14.7297C20.16 14.912 20.4864 15.0091 20.82 15.0091C21.1536 15.0091 21.48 14.912 21.7594 14.7297C22.1345 14.4803 22.5769 14.3515 23.0272 14.3606V15.0093C22.6919 14.9998 22.3623 15.0977 22.0867 15.2888C21.7118 15.5381 21.2696 15.6669 20.8195 15.6579Z" fill="white"/>
<path d="M20.8184 13.388C20.3683 13.3972 19.9261 13.2684 19.5513 13.0189C19.2762 12.8282 18.9473 12.7303 18.6127 12.7394C18.3671 12.7309 18.1232 12.7833 17.9028 12.8918L17.6167 12.308C17.9263 12.1563 18.268 12.0814 18.6127 12.0897C19.0634 12.0806 19.5061 12.2097 19.8811 12.4598C20.1608 12.6426 20.4876 12.7399 20.8217 12.7399C21.1558 12.7399 21.4826 12.6426 21.7622 12.4598C22.1364 12.2109 22.5777 12.0821 23.0271 12.0907V12.7394C22.6925 12.7302 22.3637 12.828 22.0885 13.0186C21.7128 13.2685 21.2696 13.3974 20.8184 13.388Z" fill="white"/>
<path d="M16.4045 13.3879C15.9551 13.3973 15.5136 13.2686 15.1396 13.0191C14.8607 12.8366 14.5345 12.7395 14.2012 12.7395C13.8679 12.7395 13.5417 12.8366 13.2628 13.0191C12.8842 13.2602 12.4446 13.3882 11.9958 13.3882C11.547 13.3882 11.1074 13.2602 10.7288 13.0191C10.4499 12.8367 10.1238 12.7396 9.79055 12.7396C9.45728 12.7396 9.13123 12.8367 8.85228 13.0191C8.47772 13.2683 8.0359 13.397 7.58612 13.3879C7.13605 13.3972 6.69395 13.2684 6.31931 13.0188C6.04418 12.8281 5.71536 12.7301 5.38071 12.7392C5.04739 12.7302 4.7199 12.828 4.44601 13.0181C4.07131 13.2682 3.62892 13.3972 3.17855 13.3879C2.72849 13.3972 2.28638 13.2684 1.91174 13.0188C1.63661 12.8281 1.30779 12.7301 0.973145 12.7392V12.0906C1.42331 12.0812 1.86554 12.21 2.24028 12.4597C2.51525 12.6504 2.84399 12.7484 3.17855 12.7392C3.51326 12.7484 3.84214 12.6503 4.11714 12.4593C4.49109 12.2098 4.93258 12.0811 5.38201 12.0906C5.83207 12.0813 6.27417 12.2101 6.64882 12.4597C6.9238 12.6504 7.25253 12.7484 7.58709 12.7392C7.92174 12.7483 8.25056 12.6504 8.52569 12.4597C8.9043 12.2186 9.34382 12.0906 9.79266 12.0906C10.2415 12.0906 10.681 12.2186 11.0596 12.4597C11.3386 12.642 11.6646 12.7391 11.9979 12.7391C12.3312 12.7391 12.6572 12.642 12.9362 12.4597C13.3148 12.2184 13.7545 12.0903 14.2035 12.0903C14.6524 12.0903 15.0921 12.2184 15.4708 12.4597C15.7565 12.6518 16.0953 12.7495 16.4395 12.7389C16.4646 12.7392 16.4896 12.7379 16.5144 12.735L16.6007 13.3778C16.5356 13.3854 16.4701 13.3888 16.4045 13.3879Z" fill="white"/>
<path d="M20.8195 11.1174C20.3691 11.1266 19.9266 10.9978 19.5514 10.7483C19.2722 10.5658 18.9459 10.4687 18.6123 10.4687C18.2788 10.4687 17.9525 10.5658 17.6733 10.7483C17.2947 10.9893 16.8552 11.1173 16.4064 11.1173C15.9577 11.1173 15.5182 10.9893 15.1396 10.7483C14.8608 10.5659 14.5349 10.4688 14.2017 10.4688C13.8685 10.4688 13.5426 10.5659 13.2637 10.7483C12.8852 10.9893 12.4457 11.1174 11.9969 11.1174C11.5481 11.1174 11.1087 10.9893 10.7301 10.7483C10.4513 10.5659 10.1253 10.4688 9.79217 10.4688C9.45901 10.4688 9.13306 10.5659 8.85423 10.7483C8.47961 10.9979 8.03748 11.1267 7.58742 11.1174C7.13735 11.1267 6.69523 10.9979 6.3206 10.7483C6.04573 10.5575 5.71711 10.4596 5.38266 10.4687C5.04832 10.4596 4.71981 10.5576 4.44504 10.7483C4.07101 10.9976 3.62959 11.1264 3.18017 11.1174C2.73 11.1267 2.28778 10.9979 1.91304 10.7483C1.63761 10.5572 1.30825 10.4592 0.973145 10.4687V9.82008C1.42321 9.81077 1.86532 9.93958 2.23996 10.1892C2.51508 10.3799 2.8439 10.4778 3.17855 10.4687C3.51289 10.4778 3.8414 10.3799 4.11617 10.1892C4.4902 9.93983 4.93161 9.81103 5.38104 9.82008C5.83144 9.81051 6.27393 9.93933 6.64882 10.1892C6.9238 10.3799 7.25253 10.4779 7.58709 10.4687C7.92165 10.4779 8.25039 10.3799 8.52536 10.1892C8.9039 9.94806 9.34338 9.82 9.79217 9.82C10.241 9.82 10.6804 9.94806 11.059 10.1892C11.3379 10.3715 11.6639 10.4687 11.9971 10.4687C12.3303 10.4687 12.6563 10.3715 12.9352 10.1892C13.3137 9.94806 13.7532 9.82 14.202 9.82C14.6508 9.82 15.0903 9.94806 15.4688 10.1892C15.7477 10.3715 16.0737 10.4687 16.4069 10.4687C16.7402 10.4687 17.0662 10.3715 17.345 10.1892C17.724 9.94816 18.1637 9.82016 18.6128 9.82016C19.0619 9.82016 19.5017 9.94816 19.8806 10.1892C20.16 10.3715 20.4864 10.4686 20.82 10.4686C21.1536 10.4686 21.48 10.3715 21.7594 10.1892C22.1345 9.93973 22.5769 9.81095 23.0272 9.82008V10.4687C22.6919 10.4592 22.3623 10.5572 22.0867 10.7483C21.7118 10.9976 21.2696 11.1264 20.8195 11.1174Z" fill="white"/>
<path d="M16.1977 10.8423L15.5857 10.6276C15.7433 10.1748 15.8077 9.69472 15.775 9.21634C15.7423 8.73795 15.6131 8.27113 15.3953 7.84396L13.1675 3.48147C13.1455 3.43839 13.1335 3.39094 13.1322 3.34258C13.1309 3.29423 13.1404 3.2462 13.1601 3.20201C13.1798 3.15783 13.2091 3.1186 13.2459 3.08721C13.2827 3.05583 13.3261 3.03307 13.3728 3.02061L17.8125 1.83682C17.9572 1.79899 18.0811 1.70555 18.1572 1.57684C18.2333 1.44813 18.2556 1.29456 18.2191 1.14954C18.1826 1.00453 18.0903 0.879793 17.9622 0.802481C17.8342 0.725169 17.6809 0.701533 17.5355 0.736716L12.1621 2.02104C12.0473 2.04818 11.9402 2.10141 11.8492 2.17659C11.7582 2.25177 11.6857 2.34688 11.6374 2.45457C11.5891 2.56226 11.5662 2.67963 11.5705 2.79758C11.5748 2.91553 11.6063 3.03091 11.6623 3.13477L13.258 6.09909C13.2985 6.17443 13.3076 6.26271 13.2833 6.34471C13.259 6.42671 13.2033 6.4958 13.1283 6.53693L11.0688 7.67206L10.7559 7.10385L12.5338 6.12374L11.0919 3.44223C10.9887 3.2508 10.931 3.03822 10.9231 2.82091C10.9152 2.6036 10.9574 2.38739 11.0465 2.18901C11.1355 1.99062 11.269 1.81537 11.4366 1.67681C11.6041 1.53824 11.8014 1.44008 12.0129 1.3899L17.3838 0.105905C17.6964 0.0268991 18.0277 0.0753364 18.3046 0.240561C18.5816 0.405786 18.7816 0.674263 18.8606 0.986932C18.9396 1.2996 18.8911 1.63085 18.7259 1.9078C18.5607 2.18476 18.2922 2.38474 17.9795 2.46374L13.9274 3.54374L15.9733 7.5485C16.2309 8.05401 16.3836 8.60642 16.4221 9.17248C16.4607 9.73854 16.3844 10.3065 16.1977 10.8423Z" fill="white"/>
<path d="M9.62241 7.73377L5.68115 9.90552L5.99404 10.4733L9.9353 8.3016L9.62241 7.73377Z" fill="white"/>
<path d="M19.1351 8.68493C18.654 8.68493 18.1837 8.54227 17.7837 8.27499C17.3837 8.00771 17.0719 7.62782 16.8878 7.18335C16.7037 6.73888 16.6555 6.2498 16.7494 5.77796C16.8432 5.30611 17.0749 4.87269 17.4151 4.53251C17.7553 4.19233 18.1887 3.96066 18.6605 3.86681C19.1324 3.77295 19.6214 3.82112 20.0659 4.00523C20.5104 4.18933 20.8903 4.5011 21.1576 4.90111C21.4248 5.30112 21.5675 5.77141 21.5675 6.2525C21.5668 6.89741 21.3103 7.51571 20.8543 7.97173C20.3983 8.42775 19.78 8.68424 19.1351 8.68493ZM19.1351 4.46872C18.7823 4.46872 18.4374 4.57333 18.1441 4.76934C17.8507 4.96534 17.6221 5.24393 17.4871 5.56988C17.3521 5.89582 17.3167 6.25448 17.3856 6.6005C17.4544 6.94652 17.6243 7.26436 17.8737 7.51382C18.1232 7.76329 18.441 7.93318 18.7871 8.00201C19.1331 8.07084 19.4917 8.03551 19.8177 7.9005C20.1436 7.76549 20.4222 7.53686 20.6182 7.24352C20.8142 6.95018 20.9188 6.6053 20.9188 6.2525C20.9182 5.7796 20.7301 5.32623 20.3957 4.99184C20.0613 4.65744 19.608 4.46932 19.1351 4.46872Z" fill="white"/>
</svg>
