<svg width="140" height="99" viewBox="0 0 140 99" fill="none" xmlns="http://www.w3.org/2000/svg">
<path d="M75.4155 65.0138C74.0919 64.5827 72.6665 64.3927 71.2279 64.4552C67.5056 64.5748 64.4769 66.1002 64.4635 67.8618C64.4501 69.6234 67.4572 70.9538 71.1794 70.8341C72.6178 70.8039 74.0465 70.5224 75.3775 70.0072C76.0062 69.7497 76.4138 69.2062 76.4174 68.6213L76.4348 66.3328C76.441 65.7476 76.0408 65.2303 75.4155 65.0138Z" fill="#D5D6DB"/>
<path d="M82.398 37.7727C81.4382 37.4603 80.4044 37.3226 79.3612 37.3679C76.6628 37.4546 74.466 38.5603 74.4563 39.8366C74.4466 41.1129 76.628 42.0778 79.3261 41.9911C80.3692 41.9689 81.4052 41.7644 82.3705 41.3909C82.826 41.2041 83.1212 40.8103 83.1239 40.3862L83.1365 38.7292C83.1411 38.3051 82.8514 37.9298 82.398 37.7727Z" fill="#D5D6DB"/>
<path d="M70.7991 32.2098C70.623 32.0769 70.3921 32.0079 70.1516 32.0159L63.8131 32.2199C63.2833 32.2362 62.8502 32.6157 62.8459 33.068C62.8448 33.1715 62.8669 33.2736 62.9109 33.3683L69.616 47.9056L90.7519 47.2253L70.7991 32.2098Z" fill="#029BC5"/>
<path d="M119.948 59.8574L62.6204 61.3857L32.0956 56.5698L18.0155 51.6054L18.0258 48.4293L113.083 46.724C115.919 46.6677 118.697 47.2481 121.136 48.4069C122.2 48.9198 123.181 49.5465 124.054 50.2721C124.832 50.9087 125.495 51.6397 126.022 52.4432C126.608 53.3462 128.158 54.3293 128.183 55.452C128.185 55.4517 127.16 59.9294 119.948 59.8574Z" fill="#E1E6E9"/>
<path d="M65.2356 58.2366L30.1061 76.3186C29.6408 76.5893 29.5062 77.1216 29.8052 77.5072C29.9887 77.744 30.3041 77.8804 30.6433 77.87L36.969 77.6793C38.1859 77.6424 39.3913 77.3939 40.5108 76.9491L99.9474 56.5394L65.2356 58.2366Z" fill="#029BC5"/>
<path d="M20.2341 30.2553C19.9939 29.9737 19.6037 29.8146 19.1868 29.8279L13.9521 29.9949C13.239 30.0174 12.6571 30.5286 12.6521 31.1367C12.6513 31.2524 12.6715 31.3666 12.7126 31.4752L18.3034 46.3138L33.6422 45.959L20.2341 30.2553Z" fill="#029BC5"/>
<path d="M20.9603 49.9666L10.4722 54.5941C10.3198 54.6596 10.2537 54.8161 10.3247 54.9435C10.3759 55.0352 10.4874 55.0903 10.6085 55.0836L15.4937 54.9389C15.5316 54.9377 15.5696 54.9306 15.6051 54.9179L30.0134 49.7022L20.9603 49.9666Z" fill="#029BC5"/>
<path d="M123.163 50.2119C122.265 49.4636 121.255 48.8187 120.157 48.2918C118.3 49.1098 116.704 50.3202 115.531 51.8025C115.323 52.1167 115.446 52.5044 115.805 52.6685C115.917 52.7194 116.044 52.7444 116.173 52.7411L125.187 52.4542C124.646 51.6233 123.964 50.8683 123.163 50.2119Z" fill="#029BC5"/>
<path d="M104.359 49.4188L110.232 49.2537L110.198 58.382L104.326 58.5471L104.359 49.4188Z" fill="#D5D6DB"/>
<path d="M100.084 50.5018C99.3755 50.5227 98.798 51.0276 98.7943 51.6296L98.7883 52.6049C98.8086 53.2057 99.3991 53.6594 100.107 53.6182C100.782 53.5787 101.326 53.1031 101.352 52.5293L101.358 51.554C101.362 50.9525 100.792 50.4815 100.084 50.5018Z" fill="#3A556A"/>
<path d="M94.8295 50.6098C94.1213 50.6306 93.5438 51.1355 93.5401 51.7375L93.5342 52.7128C93.5544 53.3137 94.1449 53.7673 94.8533 53.7261C95.5275 53.6866 96.0716 53.211 96.0981 52.6372L96.1041 51.6619C96.1075 51.0604 95.5371 50.5894 94.8295 50.6098Z" fill="#3A556A"/>
<path d="M89.5737 50.7177C88.8658 50.7394 88.2895 51.2439 88.2858 51.8454L88.2799 52.8207C88.3001 53.4215 88.8906 53.8752 89.599 53.834C90.2732 53.7945 90.8173 53.3189 90.8438 52.7451L90.8498 51.7698C90.8534 51.1678 90.2822 50.6969 89.5737 50.7177Z" fill="#3A556A"/>
<path d="M84.3197 50.8255C83.6118 50.8471 83.0355 51.3517 83.0318 51.9532L83.0259 52.9285C83.0461 53.5294 83.6366 53.983 84.3449 53.9418C85.0192 53.9023 85.5633 53.4267 85.5898 52.8529L85.5958 51.8776C85.5991 51.2756 85.0279 50.8046 84.3197 50.8255Z" fill="#3A556A"/>
<path d="M79.0659 50.9339C78.3576 50.9555 77.7811 51.4602 77.7774 52.062L77.7715 53.0378C77.7679 53.6393 78.3389 54.1101 79.0469 54.0893C79.7549 54.0684 80.3318 53.5639 80.3354 52.9624L80.3413 51.9866C80.3458 51.385 79.7754 50.9138 79.0674 50.9338C79.0668 50.9338 79.0665 50.9338 79.0659 50.9339Z" fill="#3A556A"/>
<path d="M73.8118 51.0418C73.1035 51.0634 72.5269 51.5681 72.5233 52.1699L72.5174 53.1457C72.5138 53.7472 73.0848 54.218 73.7928 54.1972C74.5008 54.1763 75.0776 53.6718 75.0813 53.0703L75.0871 52.0945C75.0917 51.493 74.5213 51.0217 73.8133 51.0417C73.8127 51.0417 73.8121 51.0418 73.8118 51.0418Z" fill="#3A556A"/>
<path d="M68.5574 51.1497C67.8491 51.1713 67.2726 51.676 67.2689 52.2778L67.2631 53.2536C67.2603 53.855 67.8322 54.325 68.5399 54.3034C69.2464 54.2819 69.8221 53.7784 69.8266 53.1782L69.8324 52.2024C69.8364 51.6006 69.2657 51.1294 68.5574 51.1497Z" fill="#3A556A"/>
<path d="M63.3031 51.2575C62.5949 51.2791 62.0183 51.7838 62.0147 52.3856L62.0088 53.3614C62.006 53.9629 62.5779 54.4329 63.2856 54.4113C63.9921 54.3897 64.5678 53.8863 64.5723 53.286L64.5782 52.3102C64.5821 51.7084 64.0114 51.2371 63.3031 51.2575Z" fill="#3A556A"/>
<path d="M58.0491 51.3654C57.3408 51.387 56.7643 51.8917 56.7606 52.4935L56.7548 53.4692C56.752 54.0707 57.3239 54.5407 58.0316 54.5191C58.7381 54.4976 59.3138 53.9941 59.3183 53.3939L59.3241 52.4181C59.3278 51.8163 58.7571 51.3451 58.0491 51.3654Z" fill="#3A556A"/>
<path d="M52.7934 51.4733C52.0854 51.4941 51.5085 51.9986 51.5049 52.6002L51.5049 52.6014L51.499 53.5772C51.4963 54.1787 52.0682 54.6487 52.7759 54.6271C53.4823 54.6055 54.058 54.1021 54.0625 53.5018L54.0684 52.526C54.0723 51.9242 53.5017 51.4529 52.7934 51.4733Z" fill="#3A556A"/>
<path d="M47.5407 51.5811C46.8327 51.6019 46.2559 52.1064 46.2522 52.7079L46.2522 52.7092L46.2464 53.685C46.2436 54.2865 46.8155 54.7564 47.5232 54.7349C48.2297 54.7133 48.8054 54.2099 48.8099 53.6096L48.8158 52.6338C48.8194 52.0321 48.2487 51.5608 47.5407 51.5811Z" fill="#3A556A"/>
</svg>
